<?xml version="1.0" standalone="no"?>
<!DOCTYPE svg PUBLIC "-//W3C//DTD SVG 20010904//EN"
 "http://www.w3.org/TR/2001/REC-SVG-20010904/DTD/svg10.dtd">
<svg version="1.0" xmlns="http://www.w3.org/2000/svg"
 width="665.000000pt" height="665.000000pt" viewBox="0 0 665.000000 665.000000"
 preserveAspectRatio="xMidYMid meet">
<metadata>
Created by potrace 1.11, written by Peter Selinger 2001-2013
</metadata>
<g transform="translate(0.000000,665.000000) scale(0.100000,-0.100000)"
fill="#000000" stroke="none">
<path d="M2228 6523 c-10 -2 -18 -8 -18 -12 0 -4 -19 -16 -42 -26 -24 -10 -51
-27 -62 -37 -11 -10 -25 -18 -32 -18 -7 0 -19 -6 -26 -13 -7 -7 -31 -21 -53
-31 -22 -11 -42 -22 -45 -25 -3 -3 -23 -15 -45 -26 -22 -11 -44 -24 -50 -28
-20 -17 -91 -57 -127 -73 -21 -10 -38 -20 -38 -25 0 -4 -20 -15 -45 -25 -25
-9 -45 -20 -45 -25 0 -4 -19 -17 -42 -29 -87 -42 -118 -60 -118 -68 0 -5 -18
-15 -40 -22 -23 -8 -44 -19 -48 -25 -4 -6 -23 -17 -42 -25 -19 -7 -40 -19 -46
-26 -6 -7 -23 -18 -38 -23 -14 -6 -46 -25 -70 -43 l-43 -33 -7 -80 c-3 -44 -6
-326 -6 -628 l0 -547 -40 -16 c-22 -9 -40 -20 -40 -24 0 -5 -16 -14 -35 -20
-19 -6 -38 -17 -42 -24 -5 -6 -27 -20 -50 -30 -24 -11 -43 -22 -43 -25 0 -3
-20 -15 -45 -26 -25 -11 -45 -22 -45 -26 0 -3 -20 -14 -45 -25 -25 -10 -45
-21 -45 -25 0 -3 -18 -14 -40 -24 -22 -10 -40 -21 -40 -24 0 -4 -20 -15 -45
-25 -25 -11 -45 -22 -45 -25 0 -4 -20 -15 -45 -26 -25 -11 -45 -23 -45 -26 0
-3 -19 -14 -42 -25 -24 -10 -52 -27 -62 -36 -11 -10 -25 -18 -31 -18 -7 0 -22
-9 -34 -20 -13 -10 -38 -24 -56 -30 -18 -6 -36 -17 -39 -25 -3 -8 -12 -15 -21
-15 -8 0 -15 -4 -15 -8 0 -4 -20 -18 -43 -29 l-44 -21 -6 -69 c-4 -37 -7 -335
-7 -660 l0 -593 37 -34 c21 -20 51 -38 66 -42 16 -3 31 -12 34 -19 2 -8 20
-19 38 -25 18 -6 43 -20 56 -30 12 -11 27 -20 34 -20 6 0 20 -8 31 -18 10 -9
38 -26 62 -36 23 -11 42 -22 42 -25 0 -3 20 -15 45 -26 25 -11 45 -22 45 -25
0 -4 19 -15 42 -25 24 -10 51 -27 62 -37 11 -10 25 -18 32 -18 7 0 19 -6 26
-13 7 -7 32 -22 56 -32 23 -10 42 -21 42 -25 0 -3 20 -14 45 -25 25 -11 45
-23 45 -26 0 -3 19 -14 43 -25 23 -10 45 -24 50 -30 4 -7 23 -18 42 -24 19 -6
35 -15 35 -20 0 -4 18 -15 40 -24 l40 -16 0 -625 0 -625 43 -31 c23 -17 58
-38 77 -46 19 -8 39 -21 45 -27 5 -7 26 -19 45 -26 19 -8 38 -19 42 -25 4 -6
25 -17 48 -25 22 -7 40 -17 40 -22 0 -8 31 -26 117 -68 24 -12 43 -25 43 -29
0 -5 20 -16 45 -25 25 -10 45 -21 45 -26 0 -5 16 -14 35 -20 19 -6 38 -17 42
-24 5 -6 27 -20 51 -30 23 -11 42 -22 42 -25 0 -3 20 -15 45 -26 25 -11 45
-22 45 -25 0 -4 19 -15 43 -25 23 -10 48 -25 55 -32 7 -7 19 -13 26 -13 7 0
21 -8 32 -18 11 -10 38 -27 62 -37 23 -10 42 -22 42 -26 0 -5 16 -11 37 -15
26 -5 39 -3 47 8 6 8 29 23 51 34 22 10 46 24 53 31 7 7 19 13 26 13 7 0 21 8
32 18 10 9 38 26 62 36 23 11 42 22 42 25 0 3 20 15 45 26 25 11 45 22 45 26
0 3 19 14 43 25 23 10 51 27 61 36 11 10 25 18 32 18 7 0 19 6 26 13 7 7 31
21 53 31 22 11 42 22 45 25 3 3 23 15 45 26 22 11 43 23 46 28 6 9 79 49 132
73 20 9 37 20 37 24 0 4 15 13 33 20 17 7 41 21 52 30 11 9 35 23 52 30 28 11
38 10 70 -5 21 -10 40 -21 43 -24 3 -4 23 -15 45 -25 22 -11 42 -22 45 -25 3
-3 23 -15 45 -26 22 -11 45 -25 50 -31 6 -6 26 -17 45 -24 19 -8 38 -19 43
-26 4 -7 23 -18 42 -24 19 -6 35 -15 35 -20 0 -5 20 -16 45 -26 25 -9 45 -21
45 -25 0 -5 18 -16 40 -25 22 -9 40 -20 40 -24 0 -5 16 -14 35 -20 19 -6 38
-17 42 -24 5 -7 24 -18 43 -26 19 -7 40 -18 45 -25 6 -6 26 -17 45 -25 19 -7
40 -18 45 -25 6 -6 28 -20 50 -30 22 -11 42 -22 45 -26 3 -3 22 -14 43 -24 20
-9 37 -21 37 -26 0 -4 16 -11 35 -15 26 -5 41 -2 53 9 10 9 34 23 55 32 20 8
37 19 37 24 0 4 20 16 45 25 25 10 45 21 45 26 0 5 16 14 35 20 19 6 38 17 42
24 5 6 27 20 51 30 23 11 42 22 42 25 0 3 20 15 45 26 25 11 45 22 45 25 0 4
19 15 43 25 23 10 48 25 55 32 7 7 19 13 26 13 7 0 21 8 32 18 11 10 38 27 62
37 23 10 42 21 42 25 0 3 20 14 45 25 25 11 45 23 45 26 0 3 19 14 43 25 23
10 51 27 61 36 11 10 25 18 32 18 7 0 19 7 28 15 8 9 28 21 43 28 15 7 47 26
70 42 l42 30 1 625 0 626 44 18 c25 10 47 24 49 30 3 7 23 18 46 26 23 7 41
17 41 21 0 4 19 17 43 29 66 33 111 58 125 70 7 6 28 18 47 26 19 8 35 18 35
23 0 4 20 16 45 25 25 10 45 21 45 26 0 5 16 14 35 20 19 6 38 17 42 24 5 7
24 18 43 26 19 7 40 18 45 24 6 6 28 20 50 31 22 11 42 23 45 26 3 3 23 14 45
25 22 10 42 21 45 25 3 3 22 14 43 24 20 9 37 21 37 26 0 5 7 9 15 9 9 0 38
21 65 46 l50 47 0 628 c0 356 -4 638 -9 651 -5 13 -23 32 -39 42 -17 11 -28
26 -25 33 3 7 -7 18 -24 25 -15 7 -37 21 -47 30 -11 10 -25 18 -32 18 -7 0
-19 6 -26 13 -7 7 -31 21 -53 31 -22 11 -42 22 -45 25 -3 3 -23 15 -45 26 -22
11 -44 25 -50 31 -5 6 -26 17 -45 24 -19 8 -38 19 -43 26 -4 7 -23 18 -42 24
-19 6 -35 15 -35 20 0 5 -20 16 -45 26 -25 9 -45 21 -45 25 0 5 -16 15 -35 23
-19 8 -40 20 -47 26 -14 12 -59 37 -125 70 -24 12 -43 25 -43 29 0 4 -18 14
-41 21 -23 8 -43 19 -46 26 -2 6 -24 20 -49 30 l-44 18 0 623 c0 610 0 623
-20 643 -11 11 -27 20 -35 20 -9 0 -18 6 -21 14 -3 8 -16 17 -28 20 -12 3 -33
15 -46 26 -13 11 -28 20 -35 20 -6 0 -20 8 -31 18 -10 9 -38 26 -61 36 -24 11
-43 22 -43 25 0 3 -20 15 -45 26 -25 11 -45 22 -45 25 0 4 -19 15 -42 25 -24
10 -51 27 -62 37 -18 16 -37 23 -58 19 -5 0 -8 5 -8 12 0 7 -20 21 -45 31 -25
11 -45 22 -45 25 0 4 -20 15 -45 26 -25 11 -45 23 -45 26 0 3 -19 14 -42 25
-24 10 -46 24 -51 30 -4 7 -23 18 -42 24 -19 6 -35 15 -35 20 0 5 -20 16 -45
26 -25 9 -45 21 -45 25 0 5 -17 16 -37 24 -21 9 -45 23 -55 32 -12 11 -27 14
-53 9 -19 -4 -35 -11 -35 -15 0 -5 -17 -17 -37 -26 -21 -10 -40 -21 -43 -24
-3 -4 -23 -15 -45 -25 -22 -11 -43 -24 -47 -31 -4 -6 -25 -17 -48 -25 -22 -7
-40 -17 -40 -21 0 -4 -19 -17 -42 -29 -67 -33 -112 -58 -126 -70 -7 -6 -28
-18 -47 -26 -19 -8 -35 -18 -35 -23 0 -4 -20 -16 -45 -25 -25 -10 -45 -21 -45
-26 0 -5 -16 -14 -35 -20 -19 -6 -38 -17 -42 -24 -5 -7 -24 -18 -43 -26 -19
-7 -39 -18 -45 -24 -5 -6 -28 -20 -50 -31 -22 -11 -42 -23 -45 -26 -3 -3 -23
-14 -45 -25 -22 -10 -42 -21 -45 -25 -3 -3 -22 -14 -43 -24 -32 -15 -42 -16
-70 -5 -17 7 -41 21 -52 30 -11 9 -33 22 -48 28 -15 7 -33 17 -40 22 -13 12
-59 38 -124 70 -24 12 -43 24 -43 28 0 4 -20 16 -45 27 -25 11 -45 22 -45 26
0 3 -20 14 -45 25 -25 10 -45 21 -45 25 0 4 -9 10 -20 14 -19 6 -124 65 -145
82 -5 4 -28 17 -50 28 -22 11 -45 25 -51 31 -7 6 -27 17 -46 25 -18 7 -42 21
-52 31 -11 10 -25 18 -32 18 -7 0 -19 6 -26 13 -7 7 -31 21 -53 31 -22 11 -46
25 -53 33 -13 13 -31 15 -64 6z"/>
</g>
</svg>
